<svg width="60" height="60" xmlns="http://www.w3.org/2000/svg">
 <title/>
 <desc/>

 <g>
  <title>background</title>
  <rect fill="none" id="canvas_background" height="402" width="582" y="-1" x="-1"/>
 </g>
 <g>
  <title>Layer 1</title>
  <path fill="#121aaa" id="Podcast" d="m29.9999,29.20968c2.07374,0 3.75503,-1.58343 3.75503,-3.53679c0,-1.95328 -1.68119,-3.5368 -3.75503,-3.5368c-2.07384,0 -3.75492,1.58352 -3.75492,3.5368c0,1.95336 1.68118,3.53679 3.75492,3.53679l0,0zm0,-12.37434c-5.1818,0 -9.38241,3.95668 -9.38241,8.83745c0,2.37362 0.99373,4.52845 2.61031,6.11615c0.46255,-0.70123 1.10128,-1.36928 1.98197,-1.88155c-1.10373,-1.10721 -1.78099,-2.59603 -1.78099,-4.2346c0,-3.41836 2.94198,-6.18944 6.57112,-6.18944c3.62924,0 6.57112,2.77108 6.57112,6.18944c0,1.64219 -0.6802,3.13379 -1.78815,4.24173c0.87923,0.51404 1.51619,1.18366 1.97717,1.886c1.62374,-1.5889 2.62237,-3.74827 2.62237,-6.12773c0,-4.88068 -4.20061,-8.83745 -9.38251,-8.83745l0,0zm0,-5.29111c-8.28427,0 -14.9999,6.32567 -14.9999,14.12866c0,5.09224 2.86061,9.55461 7.15034,12.0411c-0.08539,-0.61217 -0.1401,-1.26919 -0.1401,-1.94984c0,0 -0.00412,-0.52608 0.14608,-1.28587c-2.66531,-2.10859 -4.35993,-5.27036 -4.35993,-8.80539c0,-6.34837 5.46366,-11.49464 12.20361,-11.49464c6.73995,0 12.20371,5.14627 12.20371,11.49464c0,3.54254 -1.70188,6.71024 -4.37699,8.81882c0.14735,0.75247 0.14343,1.27235 0.14343,1.27235c0,0.68528 -0.05529,1.34666 -0.14167,1.96226c4.3016,-2.4839 7.17152,-6.95276 7.17152,-12.05343c-0.0001,-7.80309 -6.71583,-14.12866 -15.0001,-14.12866l0,0zm0,19.43385c-2.85139,0 -5.16307,2.17735 -5.16307,4.86317c0,2.68573 2.31158,11.47221 5.16307,11.47221c2.85149,0 5.16307,-8.78639 5.16307,-11.47221c0,-2.68582 -2.31158,-4.86317 -5.16307,-4.86317l0,0z"/>
 </g>
</svg>